<svg xmlns="http://www.w3.org/2000/svg" viewBox="0 0 100 150" width="100" height="150">
  <!-- Cloak -->
  <path d="M20,45 Q50,30 80,45 L85,130 Q50,140 15,130 Z" fill="#4b0082"/>
  <!-- Body -->
  <ellipse cx="50" cy="80" rx="25" ry="35" fill="#2d0052"/>
  <!-- Head -->
  <circle cx="50" cy="30" r="18" fill="#e8d4c4"/>
  <!-- Hair -->
  <path d="M30,30 Q35,10 50,8 Q65,10 70,30 Q68,20 50,18 Q32,20 30,30" fill="#1a1a2e"/>
  <ellipse cx="35" cy="35" rx="8" ry="15" fill="#1a1a2e"/>
  <ellipse cx="65" cy="35" rx="8" ry="15" fill="#1a1a2e"/>
  <!-- Eyes -->
  <ellipse cx="43" cy="30" rx="3" ry="4" fill="#9932cc"/>
  <ellipse cx="57" cy="30" rx="3" ry="4" fill="#9932cc"/>
  <!-- Staff -->
  <rect x="78" y="25" width="6" height="100" fill="#8b4513"/>
  <circle cx="81" cy="20" r="12" fill="#9932cc" opacity="0.8"/>
  <circle cx="81" cy="20" r="6" fill="#ff00ff" opacity="0.6"/>
  <!-- Hands -->
  <circle cx="30" cy="85" r="6" fill="#e8d4c4"/>
  <circle cx="75" cy="70" r="6" fill="#e8d4c4"/>
  <!-- Boots -->
  <ellipse cx="40" cy="135" rx="10" ry="8" fill="#1a1a2e"/>
  <ellipse cx="60" cy="135" rx="10" ry="8" fill="#1a1a2e"/>
</svg>
